<?xml version="1.0" encoding="UTF-8" standalone="no"?>
<!-- Generator: Adobe Illustrator 25.2.3, SVG Export Plug-In . SVG Version: 6.00 Build 0)  -->

<svg
   xmlns:dc="http://purl.org/dc/elements/1.1/"
   xmlns:cc="http://creativecommons.org/ns#"
   xmlns:rdf="http://www.w3.org/1999/02/22-rdf-syntax-ns#"
   xmlns:svg="http://www.w3.org/2000/svg"
   xmlns="http://www.w3.org/2000/svg"
   xmlns:sodipodi="http://sodipodi.sourceforge.net/DTD/sodipodi-0.dtd"
   xmlns:inkscape="http://www.inkscape.org/namespaces/inkscape"
   version="1.1"
   id="Ebene_1"
   x="0px"
   y="0px"
   viewBox="0 0 686 188.5"
   style="enable-background:new 0 0 686 188.5;"
   xml:space="preserve"
   sodipodi:docname="heylogin_logo_positive.svg"
   inkscape:version="0.92.4 (5da689c313, 2019-01-14)"><metadata
   id="metadata30"><rdf:RDF><cc:Work
       rdf:about=""><dc:format>image/svg+xml</dc:format><dc:type
         rdf:resource="http://purl.org/dc/dcmitype/StillImage" /><dc:title></dc:title></cc:Work></rdf:RDF></metadata><defs
   id="defs28">
	
	
	
	
</defs><sodipodi:namedview
   pagecolor="#ffffff"
   bordercolor="#666666"
   borderopacity="1"
   objecttolerance="10"
   gridtolerance="10"
   guidetolerance="10"
   inkscape:pageopacity="0"
   inkscape:pageshadow="2"
   inkscape:window-width="2560"
   inkscape:window-height="1410"
   id="namedview26"
   showgrid="false"
   inkscape:zoom="1.2369215"
   inkscape:cx="516.08594"
   inkscape:cy="284.47834"
   inkscape:window-x="0"
   inkscape:window-y="30"
   inkscape:window-maximized="1"
   inkscape:current-layer="Ebene_1" />
<style
   type="text/css"
   id="style2">
	.st0{fill:#FFFFFF;}
	.st1{fill:#3E48F8;}
	.st2{fill:#00C9FF;}
	.st3{fill:#00F500;}
	.st4{fill:#292748;}
</style>
<g
   id="Word_trademark"
   style="fill:#292748;fill-opacity:1">
	<path
   id="Path_1101"
   class="st0"
   d="M253.2,38.2v37.9h0.2c0.4-1.2,1.1-2.2,1.9-3.2c1-1.1,2.1-2,3.3-2.8c1.4-0.9,2.9-1.5,4.5-2   c1.8-0.5,3.7-0.8,5.6-0.8c3.6-0.1,7.1,0.6,10.4,2c2.5,1.2,4.6,3.1,6.1,5.4c1.5,2.5,2.6,5.3,3,8.2c0.5,3.4,0.8,6.8,0.8,10.3v30.2   h-16.8V96.6c0-1.6-0.1-3.2-0.2-4.9c-0.1-1.6-0.4-3.2-1-4.7c-1.1-3.2-4.3-5.2-7.6-4.8c-1.8-0.1-3.7,0.3-5.3,1.1   c-1.3,0.7-2.4,1.8-3.1,3.2c-0.7,1.4-1.2,2.9-1.4,4.5c-0.2,1.7-0.4,3.4-0.3,5.2v27.3h-17V38.2H253.2z"
   style="fill:#292748;fill-opacity:1" />
	<path
   id="Path_1102"
   class="st0"
   d="M353.2,114c-2.7,3.5-6.2,6.2-10.2,8c-4,1.8-8.4,2.8-12.9,2.8c-4.1,0-8.1-0.6-11.9-2   c-3.6-1.3-6.9-3.2-9.7-5.8c-2.8-2.5-5-5.6-6.5-9.1c-3.2-7.6-3.2-16.1,0-23.7c1.5-3.4,3.7-6.5,6.5-9.1c2.8-2.6,6.1-4.5,9.7-5.8   c3.8-1.4,7.9-2,11.9-2c3.6,0,7.2,0.6,10.6,2c3.1,1.3,5.9,3.3,8.1,5.8c2.3,2.7,4.1,5.8,5.2,9.1c1.2,3.8,1.9,7.8,1.8,11.8v5.2h-39.2   c0.6,3,2.1,5.7,4.4,7.7c2.3,1.9,5.3,3,8.4,2.9c2.5,0.1,4.9-0.6,7-1.9c1.9-1.3,3.6-2.9,5-4.8L353.2,114z M338.9,89.9   c0.1-2.7-0.9-5.4-2.8-7.3c-2-2-4.7-3.2-7.6-3.1c-3.2-0.1-6.3,1.1-8.6,3.2c-1,0.9-1.8,2-2.4,3.3c-0.6,1.2-0.9,2.5-1,3.9L338.9,89.9z   "
   style="fill:#292748;fill-opacity:1" />
	<path
   id="Path_1103"
   class="st0"
   d="M397.6,132.4c-1.2,2.9-2.2,5.5-3.3,7.8c-1,2.1-2.3,4.1-4,5.7c-1.8,1.6-3.9,2.8-6.1,3.5   c-3.2,0.9-6.5,1.3-9.8,1.2c-4.3,0-8.6-0.6-12.6-2l2.2-13.9c2.5,1.1,5.2,1.7,7.9,1.7c1.6,0,3.1-0.2,4.6-0.6c1.1-0.4,2.1-1,3-1.8   c0.8-0.8,1.5-1.8,2-2.9c0.5-1.1,1.1-2.4,1.7-3.9l1.2-3.2l-24-55.3h18.3l14.1,36.2h0.2l12.1-36.2h17.4L397.6,132.4z"
   style="fill:#292748;fill-opacity:1" />
	<path
   id="Path_1104"
   class="st0"
   d="M432,38.2h16.9v85.3H432V38.2z"
   style="fill:#292748;fill-opacity:1" />
	<path
   id="Path_1105"
   class="st0"
   d="M459,96.1c0-4.1,0.8-8.1,2.4-11.8c1.5-3.4,3.7-6.5,6.5-9.1c2.8-2.6,6.1-4.5,9.7-5.8   c7.7-2.7,16.1-2.7,23.8,0c3.6,1.3,6.9,3.2,9.7,5.8c2.8,2.5,5,5.6,6.5,9.1c3.2,7.6,3.2,16.1,0,23.7c-1.5,3.4-3.7,6.5-6.5,9.1   c-2.8,2.6-6.1,4.5-9.7,5.8c-7.7,2.7-16.1,2.7-23.8,0c-3.6-1.3-6.9-3.2-9.7-5.8c-2.8-2.5-5-5.6-6.5-9.1   C459.7,104.2,458.9,100.1,459,96.1z M475.9,96.1c-0.2,3.7,1.1,7.3,3.5,10c2.4,2.6,5.7,3.8,10,3.8c4.3,0,7.6-1.3,10-3.8   c4.7-5.9,4.7-14.2,0-20.1c-2.4-2.5-5.7-3.8-10-3.8c-4.3,0-7.6,1.3-10,3.8C477,88.8,475.8,92.4,475.9,96.1L475.9,96.1z"
   style="fill:#292748;fill-opacity:1" />
	<path
   id="Path_1106"
   class="st0"
   d="M587.1,118.8c0,10.4-2.6,18.2-7.9,23.6c-5.2,5.4-13.2,8.1-23.8,8.1c-4.9,0-9.7-0.5-14.4-1.6   c-4.8-1.1-9.3-3.3-13.1-6.4l9.4-14c2.5,2.1,5.3,3.8,8.3,5.2c3,1.3,6.3,2,9.5,1.9c5.2,0,9-1.3,11.4-3.8c2.5-2.6,3.8-6,3.7-9.6v-5.3   H570c-1.8,2.5-4.4,4.5-7.3,5.6c-2.6,1-5.4,1.6-8.2,1.6c-3.8,0-7.5-0.7-11-2.1c-3.2-1.3-6.1-3.3-8.5-5.9c-2.4-2.6-4.3-5.7-5.5-9   c-2.5-7.1-2.6-14.9-0.2-22c1.1-3.3,2.8-6.4,5-9.2c2.2-2.6,4.8-4.8,7.9-6.3c3.2-1.6,6.8-2.4,10.4-2.4c2.2,0,4.4,0.3,6.6,0.8   c1.9,0.5,3.6,1.1,5.4,2c1.5,0.8,2.8,1.7,4.1,2.8c1,0.9,1.9,1.9,2.7,3h0.2v-7.3h15.6L587.1,118.8z M544.4,95.7   c0,3.5,1.4,6.9,3.9,9.4c1.2,1.2,2.7,2.3,4.3,3c3.4,1.5,7.3,1.5,10.7,0c1.6-0.7,3.1-1.7,4.3-3c5.2-5.2,5.2-13.6,0-18.8c0,0,0,0,0,0   l0,0c-1.3-1.3-2.7-2.3-4.3-3c-3.4-1.5-7.3-1.5-10.7,0c-1.6,0.7-3,1.8-4.3,3C545.8,88.8,544.4,92.2,544.4,95.7z"
   style="fill:#292748;fill-opacity:1" />
	<path
   id="Path_1107"
   class="st0"
   d="M599.5,51.4c0-5.4,4.4-9.8,9.8-9.8c5.4,0,9.8,4.4,9.8,9.8s-4.4,9.8-9.8,9.8   c-2.6,0-5.1-1-6.9-2.9C600.5,56.6,599.5,54.1,599.5,51.4z M600.9,68.7h16.9v54.8h-16.9V68.7z"
   style="fill:#292748;fill-opacity:1" />
	<path
   id="Path_1108"
   class="st0"
   d="M631.4,68.7h16.2v7.4h0.2c0.6-1.1,1.4-2.2,2.2-3.2c1-1.1,2.2-2,3.5-2.8c1.5-0.8,3-1.5,4.6-2   c1.8-0.5,3.7-0.8,5.6-0.8c3.6-0.1,7.1,0.6,10.4,2c2.5,1.2,4.7,3.1,6.2,5.5c1.5,2.5,2.6,5.3,3,8.2c0.5,3.4,0.8,6.8,0.8,10.2v30.2   h-16.9V96.6c0-1.6,0-3.2-0.2-4.9c-0.1-1.6-0.4-3.2-1-4.7c-1.1-3.2-4.3-5.2-7.6-4.8c-1.8-0.1-3.7,0.3-5.3,1.1   c-1.3,0.8-2.4,1.9-3.1,3.2c-0.7,1.4-1.2,2.9-1.4,4.5c-0.2,1.7-0.3,3.4-0.3,5.2v27.3h-16.9V68.7z"
   style="fill:#292748;fill-opacity:1" />
</g>
<circle
   class="st0"
   cx="93.9"
   cy="94.2"
   r="92.9"
   id="circle13" />
<path
   style="fill:#3e48f8"
   inkscape:connector-curvature="0"
   id="path15"
   d="m 93.9,184.2 c 18.5,0 36.5,-5.7 51.6,-16.2 l -35,-41.8 c -9.3,4.8 -20.3,5.4 -30,1.4 l -35.4,42.2 c 14.5,9.4 31.5,14.4 48.8,14.4 z"
   class="st1" /><path
   style="fill:#00c9ff"
   inkscape:connector-curvature="0"
   id="path17"
   d="m 159.8,33 -35.4,42.2 c 10.5,16.8 5.4,39 -11.4,49.5 -0.9,0.5 -1.7,1 -2.6,1.5 l 35.1,41.8 c 40.7,-28.5 50.7,-84.6 22.2,-125.3 -2.4,-3.4 -5,-6.7 -7.9,-9.7 z"
   class="st2" /><path
   style="fill:#00f500"
   inkscape:connector-curvature="0"
   id="path19"
   d="m 129.9,94.2 c 0,-6.7 -1.9,-13.3 -5.5,-19 l -43.9,52.4 c 18.4,7.4 39.4,-1.5 46.8,-20 1.7,-4.3 2.6,-8.8 2.6,-13.4 z"
   class="st3" /><path
   style="fill:#292748"
   inkscape:connector-curvature="0"
   id="path21"
   d="M 45,169.8 80.4,127.6 C 62,120.2 53.1,99.2 60.5,80.7 67.9,62.2 88.9,53.3 107.3,60.8 c 7.1,2.8 13,7.9 17.1,14.3 L 159.8,33 v 0 C 126,-3.5 69.1,-5.6 32.6,28.2 -3.9,62 -6,118.9 27.9,155.4 33,160.9 38.7,165.7 45,169.8 Z"
   class="st4" />
</svg>